# xmcd
#
# Track frame offsets:
#	182
#	17000
#	34325
#
# Disc length: 709 seconds
#
# Revision: 0
# Processed by: cddbd v1.4PL0 Copyright (c) Steve Scherf et al.
# Submitted via: dBpowerAMP V4.0
#
DISCID=1c02c303
DTITLE=John Denver - A Portrait - Single
DYEAR=1999
DGENRE=Country
TTITLE0=Is it Love
TTITLE1=Calypso
TTITLE2=Rocky Mountain High
EXTD=
EXTT0=
EXTT1=
EXTT2=
PLAYORDER=
